<svg width="148" height="40" viewBox="0 0 148 40" fill="none" xmlns="http://www.w3.org/2000/svg">
<path d="M32.3136 16.8446C32.1592 16.3593 31.8501 16.1191 31.4049 16.1191H22.7617L27.0563 1.6515C27.2434 1.02494 27.081 0.549128 26.6644 0.195795C26.2964 -0.115113 25.7576 -0.0444568 25.4527 0.327714L7.8988 21.7723C7.59389 22.1445 7.52166 22.6109 7.68514 23.1385C7.84255 23.6473 8.1486 23.8923 8.59376 23.8923H17.2369L12.9423 38.3787C12.7557 39.0052 12.9146 39.467 13.3343 39.8108C13.6099 40.0417 14.1677 40.1406 14.5817 39.6366L32.0999 18.1919C32.4044 17.8198 32.4801 17.3722 32.3136 16.8446Z" fill="#D9D9D9"/>
<path d="M41.1985 25V14.0909H42.8445V23.5831H47.7876V25H41.1985ZM54.7203 21.6069V16.8182H56.3184V25H54.7523V23.5831H54.6671C54.4789 24.0199 54.177 24.3839 53.7615 24.6751C53.3496 24.9627 52.8365 25.1065 52.2221 25.1065C51.6966 25.1065 51.2314 24.9911 50.8265 24.7603C50.4252 24.5259 50.1092 24.1797 49.8784 23.7216C49.6511 23.2635 49.5375 22.6971 49.5375 22.0224V16.8182H51.1301V21.8306C51.1301 22.3881 51.2846 22.832 51.5936 23.1623C51.9025 23.4925 52.3038 23.6577 52.7974 23.6577C53.0957 23.6577 53.3922 23.5831 53.687 23.4339C53.9853 23.2848 54.2321 23.0593 54.4274 22.7575C54.6262 22.4556 54.7239 22.0721 54.7203 21.6069ZM58.4584 25V16.8182H60.051V25H58.4584ZM59.2627 15.5558C58.9857 15.5558 58.7478 15.4634 58.5489 15.2788C58.3536 15.0906 58.2559 14.8668 58.2559 14.6076C58.2559 14.3448 58.3536 14.1211 58.5489 13.9364C58.7478 13.7482 58.9857 13.6541 59.2627 13.6541C59.5397 13.6541 59.7758 13.7482 59.9711 13.9364C60.17 14.1211 60.2694 14.3448 60.2694 14.6076C60.2694 14.8668 60.17 15.0906 59.9711 15.2788C59.7758 15.4634 59.5397 15.5558 59.2627 15.5558ZM68.3248 18.8157L66.8812 19.0714C66.8208 18.8867 66.725 18.7109 66.5936 18.544C66.4657 18.3771 66.2917 18.2404 66.0716 18.1339C65.8514 18.0273 65.5762 17.9741 65.2459 17.9741C64.7949 17.9741 64.4185 18.0753 64.1167 18.2777C63.8148 18.4766 63.6639 18.734 63.6639 19.0501C63.6639 19.3235 63.7651 19.5437 63.9675 19.7106C64.1699 19.8775 64.4966 20.0142 64.9476 20.1207L66.2473 20.419C67.0002 20.593 67.5613 20.8612 67.9306 21.2234C68.2999 21.5856 68.4846 22.0561 68.4846 22.6349C68.4846 23.125 68.3425 23.5618 68.0584 23.9453C67.7779 24.3253 67.3855 24.6236 66.8812 24.8402C66.3805 25.0568 65.7999 25.1651 65.1394 25.1651C64.2232 25.1651 63.4757 24.9698 62.8968 24.5792C62.318 24.185 61.9629 23.6257 61.8315 22.9013L63.3709 22.6669C63.4668 23.0682 63.6639 23.3718 63.9622 23.5778C64.2605 23.7802 64.6493 23.8814 65.1287 23.8814C65.6507 23.8814 66.068 23.7731 66.3805 23.5565C66.693 23.3363 66.8493 23.0682 66.8493 22.7521C66.8493 22.4964 66.7534 22.2816 66.5616 22.1076C66.3734 21.9336 66.084 21.8022 65.6934 21.7134L64.3084 21.4098C63.5449 21.2358 62.9803 20.9588 62.6145 20.5788C62.2523 20.1989 62.0712 19.7177 62.0712 19.1353C62.0712 18.6523 62.2061 18.2298 62.476 17.8675C62.7459 17.5053 63.1188 17.223 63.5946 17.0206C64.0705 16.8146 64.6156 16.7116 65.2299 16.7116C66.1142 16.7116 66.8102 16.9034 67.318 17.2869C67.8258 17.6669 68.1614 18.1765 68.3248 18.8157ZM70.0812 25V23.9027L75.8181 15.5078H70.0333V14.0909H77.8316V15.1882L72.0947 23.5831H77.8795V25H70.0812ZM82.1968 25.1811C81.6784 25.1811 81.2096 25.0852 80.7906 24.8935C80.3715 24.6982 80.0395 24.4158 79.7945 24.0465C79.553 23.6772 79.4323 23.2244 79.4323 22.6882C79.4323 22.2266 79.521 21.8466 79.6986 21.5483C79.8762 21.25 80.1159 21.0138 80.4177 20.8398C80.7195 20.6658 81.0569 20.5344 81.4298 20.4457C81.8026 20.3569 82.1826 20.2894 82.5697 20.2433C83.0597 20.1864 83.4575 20.1403 83.7629 20.1048C84.0683 20.0657 84.2902 20.0036 84.4287 19.9183C84.5672 19.8331 84.6365 19.6946 84.6365 19.5028V19.4656C84.6365 19.0004 84.5051 18.6399 84.2423 18.3842C83.983 18.1286 83.596 18.0007 83.0811 18.0007C82.5448 18.0007 82.1222 18.1197 81.8133 18.3576C81.5079 18.592 81.2966 18.853 81.1794 19.1406L79.6826 18.7997C79.8602 18.3026 80.1194 17.9013 80.4603 17.5959C80.8048 17.2869 81.2007 17.0632 81.6482 16.9247C82.0956 16.7827 82.5661 16.7116 83.0597 16.7116C83.3865 16.7116 83.7327 16.7507 84.0985 16.8288C84.4678 16.9034 84.8122 17.0419 85.1318 17.2443C85.455 17.4467 85.7195 17.7362 85.9255 18.1126C86.1315 18.4854 86.2345 18.9702 86.2345 19.5668V25H84.6791V23.8814H84.6151C84.5122 24.0874 84.3577 24.2898 84.1517 24.4886C83.9458 24.6875 83.6812 24.8526 83.358 24.984C83.0349 25.1154 82.6478 25.1811 82.1968 25.1811ZM82.5431 23.9027C82.9834 23.9027 83.3598 23.8157 83.6723 23.6417C83.9884 23.4677 84.2281 23.2404 84.3914 22.9599C84.5583 22.6758 84.6418 22.3722 84.6418 22.049V20.9943C84.585 21.0511 84.4749 21.1044 84.3115 21.1541C84.1517 21.2003 83.9688 21.2411 83.7629 21.2766C83.5569 21.3086 83.3563 21.3388 83.161 21.3672C82.9656 21.392 82.8023 21.4134 82.6709 21.4311C82.3619 21.4702 82.0796 21.5359 81.824 21.6282C81.5718 21.7205 81.3694 21.8537 81.2167 22.0277C81.0676 22.1982 80.993 22.4254 80.993 22.7095C80.993 23.1037 81.1386 23.402 81.4298 23.6044C81.721 23.8033 82.0921 23.9027 82.5431 23.9027ZM88.3558 28.0682V16.8182H89.9112V18.1445H90.0444C90.1367 17.9741 90.2699 17.777 90.4439 17.5533C90.6179 17.3295 90.8594 17.1342 91.1683 16.9673C91.4773 16.7969 91.8857 16.7116 92.3935 16.7116C93.054 16.7116 93.6435 16.8786 94.1619 17.2124C94.6804 17.5462 95.087 18.0273 95.3817 18.6559C95.68 19.2844 95.8292 20.0408 95.8292 20.9251C95.8292 21.8093 95.6818 22.5675 95.3871 23.1996C95.0923 23.8281 94.6875 24.3129 94.1726 24.6538C93.6577 24.9911 93.07 25.1598 92.4094 25.1598C91.9123 25.1598 91.5057 25.0763 91.1896 24.9094C90.8771 24.7425 90.6321 24.5472 90.4545 24.3235C90.277 24.0998 90.1403 23.9009 90.0444 23.7269H89.9485V28.0682H88.3558ZM89.9165 20.9091C89.9165 21.4844 90 21.9886 90.1669 22.4219C90.3338 22.8551 90.5753 23.1942 90.8913 23.4393C91.2074 23.6808 91.5945 23.8015 92.0526 23.8015C92.5284 23.8015 92.9261 23.6754 93.2457 23.4233C93.5653 23.1676 93.8068 22.8214 93.9702 22.3846C94.1371 21.9478 94.2205 21.456 94.2205 20.9091C94.2205 20.3693 94.1388 19.8846 93.9755 19.4549C93.8157 19.0252 93.5742 18.6861 93.2511 18.4375C92.9315 18.1889 92.532 18.0646 92.0526 18.0646C91.5909 18.0646 91.2003 18.1836 90.8807 18.4215C90.5646 18.6594 90.3249 18.9915 90.1616 19.4176C89.9982 19.8437 89.9165 20.3409 89.9165 20.9091ZM99.9947 25.1811C99.4762 25.1811 99.0075 25.0852 98.5884 24.8935C98.1694 24.6982 97.8374 24.4158 97.5923 24.0465C97.3509 23.6772 97.2301 23.2244 97.2301 22.6882C97.2301 22.2266 97.3189 21.8466 97.4964 21.5483C97.674 21.25 97.9137 21.0138 98.2156 20.8398C98.5174 20.6658 98.8548 20.5344 99.2276 20.4457C99.6005 20.3569 99.9805 20.2894 100.368 20.2433C100.858 20.1864 101.255 20.1403 101.561 20.1048C101.866 20.0657 102.088 20.0036 102.227 19.9183C102.365 19.8331 102.434 19.6946 102.434 19.5028V19.4656C102.434 19.0004 102.303 18.6399 102.04 18.3842C101.781 18.1286 101.394 18.0007 100.879 18.0007C100.343 18.0007 99.9201 18.1197 99.6112 18.3576C99.3058 18.592 99.0945 18.853 98.9773 19.1406L97.4805 18.7997C97.658 18.3026 97.9173 17.9013 98.2582 17.5959C98.6026 17.2869 98.9986 17.0632 99.446 16.9247C99.8935 16.7827 100.364 16.7116 100.858 16.7116C101.184 16.7116 101.531 16.7507 101.896 16.8288C102.266 16.9034 102.61 17.0419 102.93 17.2443C103.253 17.4467 103.517 17.7362 103.723 18.1126C103.929 18.4854 104.032 18.9702 104.032 19.5668V25H102.477V23.8814H102.413C102.31 24.0874 102.156 24.2898 101.95 24.4886C101.744 24.6875 101.479 24.8526 101.156 24.984C100.833 25.1154 100.446 25.1811 99.9947 25.1811ZM100.341 23.9027C100.781 23.9027 101.158 23.8157 101.47 23.6417C101.786 23.4677 102.026 23.2404 102.189 22.9599C102.356 22.6758 102.44 22.3722 102.44 22.049V20.9943C102.383 21.0511 102.273 21.1044 102.109 21.1541C101.95 21.2003 101.767 21.2411 101.561 21.2766C101.355 21.3086 101.154 21.3388 100.959 21.3672C100.763 21.392 100.6 21.4134 100.469 21.4311C100.16 21.4702 99.8775 21.5359 99.6218 21.6282C99.3697 21.7205 99.1673 21.8537 99.0146 22.0277C98.8654 22.1982 98.7908 22.4254 98.7908 22.7095C98.7908 23.1037 98.9364 23.402 99.2276 23.6044C99.5188 23.8033 99.8899 23.9027 100.341 23.9027ZM109.973 16.8182V18.0966H105.504V16.8182H109.973ZM106.702 14.858H108.295V22.5977C108.295 22.9066 108.341 23.1392 108.434 23.2955C108.526 23.4482 108.645 23.5529 108.79 23.6097C108.94 23.663 109.101 23.6896 109.275 23.6896C109.403 23.6896 109.515 23.6808 109.611 23.663C109.707 23.6452 109.781 23.631 109.834 23.6204L110.122 24.9361C110.03 24.9716 109.898 25.0071 109.728 25.0426C109.557 25.0817 109.344 25.103 109.089 25.1065C108.67 25.1136 108.279 25.0391 107.917 24.8828C107.555 24.7266 107.262 24.4851 107.038 24.1584C106.814 23.8317 106.702 23.4215 106.702 22.9279V14.858ZM114.116 25.1811C113.597 25.1811 113.129 25.0852 112.71 24.8935C112.29 24.6982 111.958 24.4158 111.713 24.0465C111.472 23.6772 111.351 23.2244 111.351 22.6882C111.351 22.2266 111.44 21.8466 111.618 21.5483C111.795 21.25 112.035 21.0138 112.337 20.8398C112.638 20.6658 112.976 20.5344 113.349 20.4457C113.722 20.3569 114.102 20.2894 114.489 20.2433C114.979 20.1864 115.376 20.1403 115.682 20.1048C115.987 20.0657 116.209 20.0036 116.348 19.9183C116.486 19.8331 116.555 19.6946 116.555 19.5028V19.4656C116.555 19.0004 116.424 18.6399 116.161 18.3842C115.902 18.1286 115.515 18.0007 115 18.0007C114.464 18.0007 114.041 18.1197 113.732 18.3576C113.427 18.592 113.216 18.853 113.098 19.1406L111.602 18.7997C111.779 18.3026 112.038 17.9013 112.379 17.5959C112.724 17.2869 113.12 17.0632 113.567 16.9247C114.015 16.7827 114.485 16.7116 114.979 16.7116C115.305 16.7116 115.652 16.7507 116.017 16.8288C116.387 16.9034 116.731 17.0419 117.051 17.2443C117.374 17.4467 117.638 17.7362 117.844 18.1126C118.05 18.4854 118.153 18.9702 118.153 19.5668V25H116.598V23.8814H116.534C116.431 24.0874 116.277 24.2898 116.071 24.4886C115.865 24.6875 115.6 24.8526 115.277 24.984C114.954 25.1154 114.567 25.1811 114.116 25.1811ZM114.462 23.9027C114.902 23.9027 115.279 23.8157 115.591 23.6417C115.907 23.4677 116.147 23.2404 116.31 22.9599C116.477 22.6758 116.561 22.3722 116.561 22.049V20.9943C116.504 21.0511 116.394 21.1044 116.23 21.1541C116.071 21.2003 115.888 21.2411 115.682 21.2766C115.476 21.3086 115.275 21.3388 115.08 21.3672C114.885 21.392 114.721 21.4134 114.59 21.4311C114.281 21.4702 113.999 21.5359 113.743 21.6282C113.491 21.7205 113.288 21.8537 113.136 22.0277C112.987 22.1982 112.912 22.4254 112.912 22.7095C112.912 23.1037 113.058 23.402 113.349 23.6044C113.64 23.8033 114.011 23.9027 114.462 23.9027ZM123.934 25H120.403V14.0909H124.046C125.115 14.0909 126.033 14.3093 126.8 14.7461C127.567 15.1793 128.155 15.8026 128.563 16.6158C128.975 17.4254 129.181 18.3967 129.181 19.5295C129.181 20.6658 128.973 21.6424 128.558 22.4592C128.146 23.2759 127.549 23.9045 126.768 24.3448C125.987 24.7816 125.042 25 123.934 25ZM122.049 23.5618H123.844C124.675 23.5618 125.365 23.4055 125.916 23.093C126.466 22.777 126.878 22.3207 127.152 21.7241C127.425 21.1239 127.562 20.3924 127.562 19.5295C127.562 18.6737 127.425 17.9474 127.152 17.3509C126.882 16.7543 126.479 16.3015 125.942 15.9925C125.406 15.6836 124.74 15.5291 123.945 15.5291H122.049V23.5618ZM134.626 25.1651C133.82 25.1651 133.126 24.9929 132.544 24.6484C131.965 24.3004 131.517 23.8121 131.201 23.1836C130.889 22.5515 130.732 21.8111 130.732 20.9624C130.732 20.1243 130.889 19.3857 131.201 18.7464C131.517 18.1072 131.958 17.6083 132.522 17.2496C133.09 16.891 133.754 16.7116 134.514 16.7116C134.976 16.7116 135.423 16.788 135.857 16.9407C136.29 17.0934 136.679 17.3331 137.023 17.6598C137.368 17.9865 137.639 18.4109 137.838 18.9329C138.037 19.4513 138.137 20.0817 138.137 20.8239V21.3885H131.633V20.1953H136.576C136.576 19.7763 136.491 19.4052 136.32 19.082C136.15 18.7553 135.91 18.4979 135.601 18.3097C135.296 18.1214 134.937 18.0273 134.525 18.0273C134.078 18.0273 133.687 18.1374 133.353 18.3576C133.023 18.5742 132.767 18.8583 132.586 19.2099C132.409 19.5579 132.32 19.9361 132.32 20.3445V21.2766C132.32 21.8235 132.416 22.2887 132.607 22.6722C132.803 23.0558 133.074 23.3487 133.422 23.5511C133.77 23.75 134.177 23.8494 134.642 23.8494C134.944 23.8494 135.219 23.8068 135.468 23.7216C135.716 23.6328 135.931 23.5014 136.112 23.3274C136.294 23.1534 136.432 22.9386 136.528 22.6829L138.035 22.9545C137.915 23.3984 137.698 23.7873 137.385 24.1211C137.077 24.4513 136.688 24.7088 136.219 24.8935C135.754 25.0746 135.223 25.1651 134.626 25.1651ZM146.669 16.8182L143.702 25H141.997L139.025 16.8182H140.735L142.807 23.1143H142.892L144.959 16.8182H146.669Z" fill="#D9D9D9"/>
</svg>
