<svg width="40" height="40" viewBox="0 0 40 40" fill="none" xmlns="http://www.w3.org/2000/svg">
<path d="M32.3136 16.8446C32.1592 16.3593 31.8501 16.1191 31.4049 16.1191H22.7617L27.0563 1.6515C27.2434 1.02494 27.081 0.549128 26.6644 0.195795C26.2964 -0.115113 25.7576 -0.0444568 25.4527 0.327714L7.8988 21.7723C7.59389 22.1445 7.52166 22.6109 7.68514 23.1385C7.84255 23.6473 8.1486 23.8923 8.59376 23.8923H17.2369L12.9423 38.3787C12.7557 39.0052 12.9146 39.467 13.3343 39.8108C13.6099 40.0417 14.1677 40.1406 14.5817 39.6366L32.0999 18.1919C32.4044 17.8198 32.4801 17.3722 32.3136 16.8446Z" fill="#D9D9D9"/>
</svg>
