<svg width="30" height="30" viewBox="0 0 30 30" fill="none" xmlns="http://www.w3.org/2000/svg">
<g clip-path="url(#clip0_34_38)">
<path fill-rule="evenodd" clip-rule="evenodd" d="M4.5 0H25.5C27.9853 0 30 2.01472 30 4.5V25.5C30 27.9853 27.9853 30 25.5 30H4.5C2.01472 30 0 27.9853 0 25.5V4.5C0 2.01472 2.01472 0 4.5 0ZM7.20876 11.9496H8.23064C8.79806 11.9577 9.21408 12.3625 9.25486 12.9697V17.0508C9.2483 17.5629 8.82624 18.039 8.23123 18.0709H7.20876V11.9496ZM8.07654 19.8305C10.2299 19.834 10.9101 18.1641 10.9101 17.0619L10.9095 12.9059C10.909 11.8031 10.2105 10.1355 8.13396 10.1355H5.35779V19.8305H8.07654ZM13.6875 11.867H16.8094L16.8099 10.1373H13.1074C12.4541 10.1537 11.9367 10.6963 11.9525 11.3496V18.6803C11.9689 19.3342 12.5127 19.851 13.1666 19.834H16.8099V18.1014H13.6875V15.8508H15.5959V14.1182H13.6875V11.867ZM20.1023 18.6223C20.7228 20.0654 22.1086 20.424 22.882 18.6223L25.1355 10.1379H23.2265L21.4939 16.8012L19.7531 10.1379H17.8447L20.1023 18.6223Z" fill="#D9D9D9"/>
</g>
<defs>
<clipPath id="clip0_34_38">
<rect width="30" height="30" fill="white"/>
</clipPath>
</defs>
</svg>
