<svg width="20" height="20" viewBox="0 0 20 20" fill="none" xmlns="http://www.w3.org/2000/svg">
<path fill-rule="evenodd" clip-rule="evenodd" d="M14.215 12.1209L11.374 14.679C10.603 15.3724 9.39701 15.3724 8.62601 14.679L5.785 12.1209C5.383 11.76 5.36601 11.1571 5.74501 10.7743C6.12401 10.3924 6.75699 10.3753 7.15899 10.7362L8.15601 11.6343C8.47501 11.9219 9.00001 11.7067 9.00001 11.2886V6.19048C9.00001 5.66477 9.448 5.2381 10 5.2381C10.552 5.2381 11 5.66477 11 6.19048V11.2886C11 11.7067 11.525 11.9219 11.843 11.6343L12.841 10.7362C13.242 10.3753 13.875 10.3924 14.255 10.7743C14.634 11.1571 14.616 11.76 14.215 12.1209ZM17 17.6191H2.99999C2.44799 17.6191 2.00001 17.1933 2.00001 16.6667V3.33334C2.00001 2.80762 2.44799 2.38096 2.99999 2.38096H17C17.552 2.38096 18 2.80762 18 3.33334V16.6667C18 17.1933 17.552 17.6191 17 17.6191ZM0 2.38096V17.6191C0 18.6714 0.895006 19.5238 2.00001 19.5238H18C19.104 19.5238 20 18.6714 20 17.6191V2.38096C20 1.32953 19.104 0.476196 18 0.476196H2.00001C0.895006 0.476196 0 1.32953 0 2.38096Z" fill="#2D2F2E"/>
</svg>
