<svg width="30" height="30" viewBox="0 0 30 30" fill="none" xmlns="http://www.w3.org/2000/svg">
<g clip-path="url(#clip0_34_42)">
<path d="M1.34 0.177505C0.98461 0.177505 0.643776 0.318684 0.392477 0.569982C0.141178 0.821281 0 1.16212 0 1.51751L0 28.4825C0 28.8379 0.141178 29.1787 0.392477 29.43C0.643776 29.6813 0.98461 29.8225 1.34 29.8225H28.66C29.0154 29.8225 29.3562 29.6813 29.6075 29.43C29.8588 29.1787 30 28.8379 30 28.4825V1.51751C30 1.16212 29.8588 0.821281 29.6075 0.569982C29.3562 0.318684 29.0154 0.177505 28.66 0.177505H1.34ZM13.51 2.45001C13.7293 2.44977 13.9439 2.51335 14.1277 2.63298C14.3115 2.75262 14.4565 2.92314 14.545 3.12376C14.6792 3.01336 14.8403 2.94062 15.0119 2.913C15.1834 2.88539 15.3592 2.90388 15.5213 2.96659C15.6834 3.0293 15.8258 3.13397 15.9341 3.26988C16.0424 3.40578 16.1126 3.56804 16.1375 3.74001C16.2508 3.68696 16.375 3.66127 16.5 3.66501C16.9125 3.67501 17.2375 3.99251 17.2812 4.38376C17.4676 4.09293 17.7404 3.8678 18.0613 3.74001C18.4641 3.57651 18.915 3.57793 19.3168 3.74397C19.7185 3.91 20.0389 4.22734 20.2087 4.6275C20.3178 4.50733 20.4473 4.40745 20.5912 4.33251C20.9165 4.16609 21.2945 4.13568 21.6421 4.24796C21.9898 4.36025 22.2786 4.60604 22.445 4.93125C22.5383 5.1134 22.5896 5.31416 22.595 5.51875C22.8127 5.4309 23.0509 5.40654 23.2819 5.4485C23.513 5.49046 23.7274 5.59702 23.9003 5.75584C24.0732 5.91465 24.1976 6.11921 24.2591 6.34583C24.3205 6.57244 24.3165 6.81183 24.2475 7.03625C24.4712 6.99746 24.7014 7.02693 24.9081 7.12084C25.1147 7.21474 25.2883 7.36873 25.4063 7.56273C25.5242 7.75673 25.5809 7.98174 25.5691 8.20846C25.5573 8.43517 25.4774 8.65307 25.34 8.83375C25.5015 8.89869 25.6428 9.00547 25.7493 9.1431C25.8558 9.28073 25.9238 9.44425 25.9462 9.61685C25.9686 9.78945 25.9446 9.96491 25.8768 10.1252C25.8089 10.2854 25.6996 10.4247 25.56 10.5288C25.6598 10.6024 25.7411 10.6982 25.7975 10.8088C25.8593 10.9275 25.8904 11.0598 25.888 11.1936C25.8856 11.3275 25.8498 11.4586 25.7838 11.575C26.0025 11.6309 26.2075 11.7308 26.3862 11.8688C26.7292 12.135 26.9547 12.5246 27.015 12.9545C27.0752 13.3845 26.9653 13.821 26.7088 14.1713C26.8644 14.2078 27.0124 14.2713 27.1462 14.3588C27.4524 14.555 27.6685 14.8644 27.7474 15.2194C27.8263 15.5744 27.7617 15.9462 27.5675 16.2538C27.4583 16.4275 27.3113 16.5745 27.1375 16.6838C27.3815 16.8737 27.5459 17.1477 27.5986 17.4524C27.6513 17.757 27.5885 18.0704 27.4225 18.3313C27.2491 18.6022 26.9784 18.7963 26.6663 18.8738C26.8137 19.0474 26.9053 19.2616 26.9289 19.4882C26.9525 19.7148 26.9071 19.9433 26.7985 20.1436C26.69 20.3439 26.5234 20.5068 26.3207 20.6107C26.1179 20.7147 25.8885 20.755 25.6625 20.7263C25.6596 20.7095 25.6562 20.6928 25.6525 20.6763C25.6868 20.8508 25.6729 21.0315 25.6123 21.1987C25.5517 21.366 25.4468 21.5137 25.3087 21.6258C25.1705 21.738 25.0045 21.8104 24.8284 21.8354C24.6522 21.8603 24.4726 21.8369 24.3088 21.7675C24.2959 21.8922 24.254 22.0121 24.1863 22.1175C24.1276 22.2124 24.0492 22.2937 23.9565 22.3558C23.8638 22.4179 23.7589 22.4594 23.6488 22.4775C23.6911 22.6644 23.7008 22.8573 23.6775 23.0475C23.6268 23.4779 23.4106 23.8716 23.0746 24.1453C22.7386 24.419 22.3092 24.5512 21.8775 24.5138C21.9273 24.6657 21.9501 24.8252 21.945 24.985C21.9352 25.3495 21.7812 25.6952 21.5169 25.9464C21.2526 26.1976 20.8995 26.3337 20.535 26.325C20.3304 26.3194 20.1297 26.2682 19.9475 26.175C19.9206 26.4079 19.8283 26.6284 19.6814 26.8111C19.5345 26.9938 19.3388 27.1312 19.1171 27.2074C18.8954 27.2836 18.6567 27.2955 18.4285 27.2418C18.2003 27.1881 17.9919 27.0709 17.8275 26.9038C17.7549 27.1201 17.6185 27.3093 17.4362 27.4466C17.254 27.5839 17.0345 27.6628 16.8065 27.6729C16.5786 27.6831 16.3529 27.624 16.1592 27.5034C15.9655 27.3829 15.8128 27.2065 15.7212 26.9975C15.5871 27.1079 15.4259 27.1806 15.2544 27.2083C15.0828 27.2359 14.907 27.2174 14.7449 27.1547C14.5829 27.092 14.4404 26.9873 14.3321 26.8514C14.2239 26.7155 14.1537 26.5532 14.1288 26.3813C14.0159 26.436 13.8917 26.4634 13.7662 26.4613C13.5706 26.4563 13.3835 26.3798 13.2404 26.2462C13.0974 26.1126 13.0083 25.9311 12.99 25.7363L12.995 25.7275C12.8074 26.0234 12.5308 26.2523 12.205 26.3813C11.8025 26.5421 11.3533 26.5399 10.9524 26.3751C10.5516 26.2104 10.2306 25.8961 10.0575 25.4988C9.94802 25.6171 9.81854 25.7153 9.675 25.7888C9.35031 25.9541 8.97334 25.984 8.62661 25.872C8.27989 25.7601 7.99165 25.5153 7.825 25.1913C7.73018 25.009 7.67763 24.8078 7.67125 24.6025C7.45424 24.6884 7.2174 24.7115 6.98788 24.6691C6.75836 24.6266 6.54543 24.5204 6.37349 24.3626C6.20155 24.2047 6.07755 24.0016 6.0157 23.7766C5.95384 23.5515 5.95663 23.3136 6.02375 23.09C5.79924 23.1299 5.56792 23.1009 5.36019 23.0068C5.15246 22.9128 4.97804 22.7581 4.85984 22.5631C4.74165 22.3681 4.68522 22.1419 4.69797 21.9142C4.71071 21.6866 4.79203 21.4681 4.93125 21.2875C4.76977 21.2226 4.62849 21.1158 4.52195 20.9782C4.41541 20.8405 4.34744 20.677 4.32504 20.5044C4.30264 20.3318 4.32661 20.1564 4.39448 19.9961C4.46236 19.8358 4.5717 19.6965 4.71125 19.5925C4.60959 19.5195 4.52653 19.4235 4.46875 19.3125C4.40761 19.1942 4.37686 19.0626 4.37926 18.9295C4.38166 18.7964 4.41714 18.666 4.4825 18.55L4.50625 18.555C4.28052 18.5001 4.06886 18.3983 3.885 18.2563C3.54023 17.9906 3.31299 17.6007 3.25179 17.1698C3.1906 16.7389 3.30031 16.3011 3.5575 15.95C3.40219 15.915 3.25414 15.8533 3.12 15.7675C2.81247 15.5712 2.5954 15.2608 2.51643 14.9046C2.43745 14.5484 2.50302 14.1754 2.69875 13.8675C2.80965 13.6951 2.95789 13.5499 3.1325 13.4425C2.94674 13.2995 2.80525 13.1068 2.72436 12.8867C2.64347 12.6667 2.62649 12.4282 2.67538 12.1989C2.72427 11.9696 2.83704 11.7589 3.00065 11.5909C3.16427 11.423 3.37205 11.3048 3.6 11.25C3.4534 11.0763 3.36261 10.8624 3.33949 10.6362C3.31638 10.4101 3.362 10.1822 3.47041 9.98239C3.57882 9.78258 3.74497 9.62012 3.94716 9.51622C4.14935 9.41232 4.37818 9.37182 4.60375 9.4C4.57824 9.22767 4.59913 9.05165 4.66427 8.89007C4.72941 8.72849 4.83645 8.5872 4.97436 8.48075C5.11226 8.37429 5.27605 8.30653 5.44886 8.28442C5.62167 8.26232 5.79724 8.28668 5.9575 8.355C5.97031 8.23034 6.01228 8.11045 6.08 8.005C6.14052 7.91092 6.21985 7.83038 6.31299 7.76842C6.40614 7.70647 6.51109 7.66445 6.62125 7.645C6.57821 7.45991 6.56721 7.26881 6.58875 7.08C6.63913 6.64822 6.85614 6.25317 7.19354 5.97905C7.53093 5.70493 7.96204 5.5734 8.395 5.6125C8.34268 5.46101 8.31729 5.30151 8.32 5.14125C8.32454 4.9604 8.36469 4.78221 8.43816 4.61688C8.51162 4.45156 8.61697 4.30234 8.74816 4.17777C8.87935 4.05319 9.03382 3.95571 9.20272 3.89089C9.37162 3.82607 9.55165 3.79518 9.7325 3.80001C9.93661 3.80347 10.1374 3.85259 10.32 3.94376C10.3477 3.71128 10.4406 3.49136 10.5878 3.30935C10.7351 3.12734 10.9308 2.99064 11.1523 2.91499C11.3739 2.83935 11.6123 2.82785 11.8401 2.88181C12.068 2.93578 12.2759 3.05301 12.44 3.22001C12.5152 2.9954 12.6591 2.8001 12.8513 2.6617C13.0435 2.52331 13.2744 2.44882 13.5112 2.44876L13.51 2.45001ZM4.60375 9.4C4.60663 9.41717 4.60996 9.43301 4.61375 9.45L4.60875 9.4C4.60708 9.39958 4.60542 9.40042 4.60375 9.4ZM21.8775 24.5138C21.8767 24.5121 21.8758 24.5092 21.875 24.5075H21.8287C21.845 24.5094 21.8612 24.5123 21.8775 24.5138ZM17.2812 4.38376C17.2779 4.38874 17.2746 4.39374 17.2712 4.39876L17.2812 4.38376ZM14.32 4.36626L14.3162 4.37001C14.2083 4.48027 14.0787 4.56714 13.9357 4.6252C13.7927 4.68326 13.6393 4.71128 13.485 4.70751C13.2151 4.70184 12.9563 4.59885 12.7563 4.41751C12.683 4.68603 12.5217 4.92218 12.2982 5.0881C12.0747 5.25401 11.802 5.34008 11.5238 5.3325C11.3684 5.32994 11.2149 5.29814 11.0713 5.23875C11.0551 5.58353 10.9096 5.90956 10.6638 6.15187C10.418 6.39419 10.09 6.535 9.745 6.54625C9.88326 6.83188 9.93662 7.15119 9.89875 7.46625C9.8664 7.74001 9.76668 8.00147 9.60853 8.22724C9.45038 8.45302 9.23872 8.63607 8.9925 8.76C9.11935 8.89179 9.21863 9.04757 9.28452 9.21821C9.35042 9.38884 9.3816 9.57091 9.37625 9.75375C9.36872 10.0486 9.26711 10.3333 9.08625 10.5663C9.4875 10.7913 9.74875 11.22 9.74 11.71C9.735 11.8544 9.70541 11.9968 9.6525 12.1313C9.93962 12.1611 10.2048 12.2984 10.3949 12.5156C10.5851 12.7329 10.686 13.014 10.6775 13.3025C10.6777 13.3602 10.6735 13.4179 10.665 13.475C10.7298 13.4639 10.7956 13.4597 10.8612 13.4625C11.29 13.4713 11.645 13.775 11.7387 14.175C11.8792 14.0813 12.045 14.0329 12.2137 14.0363C12.6012 14.045 12.915 14.3163 13.0037 14.675C13.076 14.6343 13.1568 14.6114 13.2396 14.6082C13.3224 14.6049 13.4048 14.6214 13.48 14.6563C13.535 14.3651 13.6656 14.0935 13.8587 13.8688C13.7959 13.8212 13.7446 13.7601 13.7087 13.69C13.6699 13.614 13.65 13.5297 13.6509 13.4444C13.6518 13.359 13.6733 13.2752 13.7137 13.2C13.569 13.1672 13.4357 13.0963 13.3277 12.9945C13.2196 12.8928 13.1408 12.764 13.0993 12.6215C13.0579 12.4791 13.0553 12.3281 13.0919 12.1843C13.1285 12.0405 13.203 11.9091 13.3075 11.8038C13.1142 11.7193 12.9558 11.5711 12.8587 11.3838C12.8004 11.2692 12.7666 11.1437 12.7595 11.0154C12.7523 10.887 12.772 10.7586 12.8173 10.6382C12.8626 10.5179 12.9325 10.4083 13.0225 10.3165C13.1125 10.2247 13.2206 10.1527 13.34 10.105C13.3145 10.1147 13.2895 10.1256 13.265 10.1375C13.1621 10.0445 13.0769 9.93351 13.0138 9.81C12.933 9.65363 12.8894 9.48072 12.8864 9.30474C12.8833 9.12876 12.921 8.95446 12.9963 8.7954C13.0717 8.63634 13.1827 8.49682 13.3208 8.38769C13.4589 8.27857 13.6203 8.20279 13.7925 8.16625V8.1625C13.6385 7.86266 13.6096 7.51404 13.7119 7.19289C13.8143 6.87174 14.0397 6.60419 14.3387 6.44875C14.5512 6.3375 14.791 6.28895 15.03 6.30875C15.0135 6.04033 15.0754 5.7729 15.2081 5.539C15.3408 5.30509 15.5386 5.1148 15.7775 4.99126C15.8022 4.97969 15.8272 4.96886 15.8525 4.95876C15.7912 4.88045 15.745 4.79144 15.7162 4.69626C15.5482 4.80859 15.3496 4.86622 15.1475 4.86126C14.9786 4.85708 14.8136 4.8093 14.6687 4.72257C14.5237 4.63584 14.4036 4.5131 14.32 4.36626ZM20.0362 6.25625C19.8517 6.51417 19.5971 6.71373 19.3025 6.83125C19.0467 6.93356 18.7695 6.9709 18.4958 6.93992C18.222 6.90895 17.9602 6.81063 17.7337 6.65375V6.64C17.6793 6.81663 17.5901 6.98059 17.4714 7.12226C17.3527 7.26393 17.2069 7.38046 17.0425 7.465C16.7804 7.60224 16.4811 7.65174 16.1888 7.60625C16.1847 7.83666 16.1183 8.06166 15.9966 8.25733C15.8749 8.45301 15.7024 8.61203 15.4975 8.7175C15.3689 8.7844 15.2298 8.82879 15.0863 8.84875C15.1968 9.11529 15.2029 9.41368 15.1032 9.68449C15.0036 9.95529 14.8057 10.1786 14.5487 10.31C14.4977 10.3373 14.4446 10.3607 14.39 10.38C14.4315 10.4302 14.4675 10.4847 14.4975 10.5425C14.5911 10.7249 14.6213 10.9333 14.5832 11.1348C14.5452 11.3362 14.4411 11.5193 14.2875 11.655C14.4377 11.7342 14.56 11.8577 14.6375 12.0088C14.7225 12.1715 14.7503 12.358 14.7166 12.5385C14.6828 12.7189 14.5894 12.8828 14.4513 13.0038C14.5325 13.0534 14.5986 13.1243 14.6425 13.2088C14.6662 13.2513 14.68 13.2938 14.69 13.335C14.964 13.2584 15.2529 13.2519 15.53 13.3163C15.5423 13.2533 15.5661 13.1932 15.6 13.1388C15.646 13.067 15.7087 13.0075 15.7827 12.9652C15.8567 12.923 15.9398 12.8993 16.025 12.8963C15.9797 12.755 15.9729 12.6042 16.0056 12.4595C16.0382 12.3148 16.1089 12.1814 16.2104 12.0733C16.3119 11.9651 16.4405 11.8861 16.5829 11.8444C16.7253 11.8028 16.8762 11.7999 17.02 11.8363C16.9969 11.6269 17.0463 11.416 17.16 11.2388C17.2247 11.1366 17.309 11.0483 17.4079 10.9789C17.5069 10.9095 17.6187 10.8604 17.7367 10.8344C17.8548 10.8083 17.9768 10.8059 18.0958 10.8273C18.2148 10.8486 18.3284 10.8933 18.43 10.9588C18.4592 10.8227 18.513 10.693 18.5888 10.5763C18.6695 10.4484 18.7747 10.3379 18.8985 10.251C19.0222 10.1642 19.1619 10.1027 19.3095 10.0701C19.4571 10.0376 19.6097 10.0346 19.7585 10.0614C19.9073 10.0882 20.0493 10.1442 20.1763 10.2263C20.2588 10.2801 20.334 10.3444 20.4 10.4175C20.4898 10.2762 20.6065 10.1539 20.7436 10.0577C20.8806 9.96145 21.0353 9.89316 21.1987 9.85671C21.3621 9.82027 21.5312 9.81637 21.6961 9.84524C21.861 9.87412 22.0187 9.9352 22.16 10.025C22.3627 10.153 22.5248 10.3359 22.6275 10.5525C23.0712 10.2525 23.6688 10.2263 24.145 10.5338C24.2405 10.5945 24.3283 10.6667 24.4062 10.7488C24.4356 10.7003 24.4699 10.655 24.5088 10.6138C24.3303 10.5194 24.1854 10.3723 24.0938 10.1925C24.0166 10.0424 23.9795 9.87495 23.9861 9.70633C23.9927 9.5377 24.0427 9.37363 24.1313 9.23C23.9832 9.18755 23.8455 9.11517 23.7266 9.01734C23.6077 8.91951 23.5102 8.79831 23.44 8.66125C23.3156 8.4211 23.2823 8.14405 23.3463 7.88125C23.0756 7.94662 22.7908 7.91919 22.5377 7.80336C22.2845 7.68753 22.0775 7.49002 21.95 7.2425C21.8787 7.10249 21.8346 6.95021 21.82 6.79375C21.5096 6.94496 21.1536 6.97361 20.823 6.87399C20.4924 6.77437 20.2114 6.5538 20.0362 6.25625ZM6.56125 9.2125C6.57048 9.41561 6.51631 9.61656 6.40625 9.7875C6.3155 9.92971 6.18957 10.0461 6.04066 10.1254C5.89175 10.2046 5.7249 10.2441 5.55625 10.24C5.63125 10.5338 5.58875 10.8525 5.41625 11.1275C5.27138 11.3546 5.04948 11.522 4.79125 11.5988C5.17875 12.005 5.2575 12.635 4.94125 13.13C4.85712 13.2612 4.74897 13.3752 4.6225 13.4663C4.91047 13.6576 5.11563 13.9505 5.19697 14.2865C5.27832 14.6226 5.22984 14.9769 5.06125 15.2788C5.37619 15.309 5.67591 15.4287 5.925 15.6238C6.14249 15.7927 6.31477 16.0128 6.42645 16.2645C6.53812 16.5162 6.58572 16.7917 6.565 17.0663C6.915 16.9863 7.28875 17.0425 7.615 17.2538C7.86325 17.4108 8.05502 17.6429 8.1625 17.9163C8.3641 17.8029 8.59274 17.7465 8.82395 17.7531C9.05515 17.7597 9.2802 17.829 9.475 17.9538C9.59779 18.031 9.70644 18.1286 9.79625 18.2425C9.96883 18.0109 10.2227 17.8533 10.5068 17.8014C10.7909 17.7494 11.0841 17.807 11.3275 17.9625C11.3769 17.9947 11.4237 18.0306 11.4675 18.07C11.4906 18.0078 11.5204 17.9483 11.5562 17.8925C11.6664 17.7198 11.8307 17.5886 12.0234 17.5194C12.2162 17.4502 12.4264 17.4469 12.6213 17.51C12.6135 17.3422 12.6572 17.1761 12.7462 17.0338C12.8453 16.8796 12.9925 16.7625 13.165 16.7008C13.3376 16.639 13.5257 16.6361 13.7 16.6925C13.7019 16.5937 13.7318 16.4974 13.7862 16.4148C13.8407 16.3323 13.9174 16.2669 14.0075 16.2263C13.8089 16.0466 13.6556 15.8226 13.56 15.5725V15.5625C13.4685 15.6263 13.359 15.6592 13.2475 15.6563C13.1619 15.6545 13.0781 15.632 13.0032 15.5906C12.9283 15.5492 12.8645 15.4903 12.8175 15.4188C12.7198 15.5288 12.5946 15.611 12.4547 15.6568C12.3148 15.7027 12.1653 15.7105 12.0214 15.6796C11.8775 15.6487 11.7444 15.5802 11.6356 15.481C11.5269 15.3818 11.4464 15.2555 11.4025 15.115C11.2339 15.2428 11.0264 15.3086 10.815 15.3013C10.6939 15.2988 10.5745 15.2724 10.4637 15.2236C10.3529 15.1747 10.2528 15.1044 10.1694 15.0166C10.0859 14.9288 10.0207 14.8254 9.97745 14.7123C9.93422 14.5991 9.91384 14.4786 9.9175 14.3575C9.78531 14.4029 9.64592 14.4236 9.50625 14.4188C9.33035 14.4146 9.15779 14.3699 9.00197 14.2882C8.84616 14.2065 8.71131 14.0899 8.6079 13.9475C8.50449 13.8052 8.43532 13.6409 8.40576 13.4674C8.37621 13.294 8.38707 13.1161 8.4375 12.9475H8.4325C8.26538 12.9438 8.10065 12.9071 7.94774 12.8396C7.79483 12.772 7.65676 12.675 7.54144 12.554C7.42613 12.433 7.33583 12.2904 7.27574 12.1344C7.21564 11.9784 7.18693 11.8121 7.19125 11.645C7.19709 11.4072 7.26988 11.1758 7.40125 10.9775C7.15641 10.8632 6.95028 10.6799 6.80816 10.45C6.66605 10.2202 6.59413 9.95388 6.60125 9.68375C6.60474 9.53092 6.63346 9.37972 6.68625 9.23625C6.64403 9.23162 6.60223 9.22368 6.56125 9.2125ZM20.47 11.8788C20.2976 12.1106 20.0437 12.2684 19.7595 12.3203C19.4753 12.3723 19.182 12.3146 18.9387 12.1588C18.8896 12.1281 18.8428 12.0939 18.7987 12.0563C18.7772 12.1182 18.7491 12.1777 18.715 12.2338C18.6041 12.4055 18.4395 12.5357 18.2468 12.604C18.0542 12.6723 17.8443 12.6749 17.65 12.6113C17.6569 12.7814 17.611 12.9494 17.5188 13.0925C17.4208 13.2476 17.2741 13.3658 17.1017 13.4285C16.9293 13.4912 16.7409 13.4948 16.5662 13.4388C16.5643 13.5326 16.5371 13.6241 16.4875 13.7038C16.4612 13.7436 16.4297 13.7798 16.3937 13.8113C16.5794 14.0112 16.7141 14.2531 16.7862 14.5163C16.8593 14.4817 16.9393 14.4646 17.02 14.4663C17.1058 14.4687 17.1897 14.4921 17.2644 14.5344C17.3391 14.5766 17.4024 14.6365 17.4487 14.7088C17.5462 14.5974 17.6716 14.514 17.812 14.4673C17.9525 14.4206 18.1028 14.4122 18.2476 14.4431C18.3923 14.4739 18.5262 14.5428 18.6354 14.6427C18.7446 14.7426 18.8252 14.8698 18.8687 15.0113C19.0357 14.8825 19.2418 14.815 19.4525 14.82C19.965 14.83 20.3625 15.255 20.3525 15.7638C20.3525 15.7671 20.3525 15.7704 20.3525 15.7738V15.7675C20.4833 15.7213 20.6213 15.6993 20.76 15.7025C20.911 15.7056 21.0598 15.7385 21.198 15.7994C21.3362 15.8603 21.4609 15.948 21.565 16.0573C21.6692 16.1667 21.7506 16.2956 21.8047 16.4365C21.8587 16.5775 21.8843 16.7278 21.88 16.8788C21.8775 16.9787 21.8619 17.0779 21.8337 17.1738C22.5387 17.1925 23.0937 17.7763 23.075 18.4813C23.0692 18.7191 22.9964 18.9504 22.865 19.1488C23.1115 19.2618 23.3194 19.4446 23.4632 19.6745C23.6069 19.9044 23.6801 20.1714 23.6737 20.4425C23.668 20.5975 23.6363 20.7505 23.58 20.895L23.585 20.8863L23.71 20.9088C23.7008 20.7056 23.7549 20.5047 23.865 20.3338C23.9558 20.1915 24.0817 20.0752 24.2306 19.9959C24.3795 19.9166 24.5464 19.8771 24.715 19.8813C24.6761 19.7316 24.6685 19.5756 24.6926 19.4229C24.7166 19.2702 24.7719 19.1241 24.855 18.9938C25.002 18.7675 25.2257 18.602 25.485 18.5275C25.2911 18.3267 25.1704 18.0663 25.1425 17.7885C25.1146 17.5107 25.1811 17.2316 25.3312 16.9963C25.4161 16.8649 25.5251 16.7508 25.6525 16.66C25.3638 16.4684 25.1582 16.1747 25.077 15.8378C24.9959 15.5009 25.0452 15.1458 25.215 14.8438C24.8983 14.8158 24.5963 14.6973 24.345 14.5025H24.3412C24.123 14.3331 23.9503 14.1122 23.8386 13.8595C23.7269 13.6069 23.6797 13.3304 23.7013 13.055C23.5236 13.0969 23.3394 13.1025 23.1596 13.0713C22.9798 13.0402 22.8081 12.973 22.655 12.8738C22.4048 12.7155 22.212 12.4811 22.105 12.205C21.9039 12.3191 21.6754 12.3764 21.4442 12.3707C21.213 12.365 20.9878 12.2964 20.7925 12.1725C20.6689 12.0939 20.5598 11.9945 20.47 11.8788ZM20.3525 15.7738L20.3438 15.8563C20.3479 15.8289 20.3508 15.8014 20.3525 15.7738ZM16.7725 15.45C16.689 15.7345 16.5326 15.9922 16.3188 16.1975C16.4232 16.2465 16.5084 16.3287 16.5612 16.4313C16.6004 16.5082 16.6201 16.5935 16.6186 16.6798C16.617 16.7661 16.5943 16.8508 16.5525 16.9263C16.6966 16.9589 16.8295 17.0294 16.9373 17.1305C17.0451 17.2316 17.1241 17.3596 17.166 17.5013C17.2079 17.6431 17.2112 17.7934 17.1757 17.9369C17.1401 18.0803 17.067 18.2117 16.9638 18.3175C17.1566 18.4022 17.3146 18.5504 17.4112 18.7375C17.5228 18.9553 17.5433 19.2085 17.4683 19.4415C17.3933 19.6745 17.2289 19.8681 17.0112 19.98C17.1123 20.0731 17.1957 20.1836 17.2575 20.3063C17.3272 20.4398 17.3696 20.5858 17.3824 20.7358C17.3952 20.8858 17.3781 21.0369 17.3321 21.1803C17.286 21.3237 17.212 21.4565 17.1142 21.571C17.0164 21.6856 16.8969 21.7795 16.7625 21.8475C16.674 21.8937 16.5799 21.9281 16.4825 21.95V21.955C16.5592 22.1039 16.6058 22.2664 16.6197 22.4333C16.6335 22.6002 16.6144 22.7682 16.5633 22.9277C16.5122 23.0872 16.4302 23.235 16.322 23.3628C16.2138 23.4906 16.0814 23.5959 15.9325 23.6725C15.7207 23.7818 15.4824 23.829 15.245 23.8088C15.2621 24.0918 15.1921 24.3733 15.0444 24.6153C14.8966 24.8574 14.6783 25.0483 14.4187 25.1625C14.4814 25.2405 14.5289 25.3295 14.5588 25.425C14.5571 25.4251 14.5554 25.4251 14.5537 25.425V25.4288C14.7218 25.3153 14.921 25.2568 15.1237 25.2613C15.292 25.2651 15.4563 25.3123 15.601 25.3981C15.7457 25.4839 15.8659 25.6055 15.95 25.7513C16.058 25.641 16.1875 25.5541 16.3305 25.4961C16.4735 25.438 16.627 25.41 16.7812 25.4138C17.0536 25.4196 17.3144 25.5245 17.515 25.7088C17.5871 25.4401 17.7473 25.2035 17.9698 25.0367C18.1924 24.8699 18.4644 24.7826 18.7425 24.7888C18.8982 24.7929 19.0517 24.8264 19.195 24.8875V24.915C19.2037 24.5647 19.3458 24.231 19.5923 23.9819C19.8388 23.7329 20.1711 23.5873 20.5212 23.575C20.383 23.2894 20.3296 22.9701 20.3675 22.655C20.4375 22.08 20.7925 21.6088 21.2737 21.3613L21.2775 21.3663C21.1501 21.2347 21.0502 21.079 20.9837 20.9084C20.9171 20.7378 20.8853 20.5556 20.89 20.3725C20.8965 20.0759 20.9981 19.7893 21.18 19.555C20.9143 19.4051 20.7112 19.1648 20.6075 18.8779C20.5039 18.591 20.5065 18.2764 20.615 17.9913C20.3281 17.962 20.0628 17.8255 19.8723 17.609C19.6817 17.3925 19.58 17.1121 19.5875 16.8238C19.5875 16.7643 19.5921 16.705 19.6012 16.6463C19.5367 16.6595 19.4709 16.6658 19.405 16.665C19.2011 16.6587 19.0049 16.5852 18.8471 16.4559C18.6893 16.3266 18.5787 16.1487 18.5325 15.95C18.3904 16.0454 18.2223 16.0943 18.0513 16.09C17.8685 16.084 17.6928 16.0181 17.5512 15.9025C17.4096 15.7868 17.3099 15.6279 17.2675 15.45C17.1848 15.4963 17.091 15.5192 16.9963 15.5163C16.918 15.5146 16.8411 15.4954 16.7712 15.46L16.7725 15.45ZM15.5675 16.6125C15.4302 16.6474 15.2891 16.6651 15.1475 16.665C15.0075 16.665 14.8725 16.65 14.745 16.6175C14.7667 16.7455 14.7399 16.8769 14.67 16.9863C14.6238 17.0587 14.5606 17.1188 14.4859 17.1613C14.4111 17.2038 14.3272 17.2274 14.2412 17.23C14.285 17.3705 14.2907 17.52 14.2578 17.6634C14.2248 17.8068 14.1545 17.9388 14.0538 18.0461C13.9531 18.1534 13.8258 18.232 13.6848 18.274C13.5438 18.316 13.3942 18.3198 13.2512 18.285C13.2743 18.4943 13.2249 18.7052 13.1112 18.8825C12.979 19.0883 12.7705 19.2333 12.5316 19.2858C12.2926 19.3383 12.0426 19.2939 11.8363 19.1625C11.807 19.2986 11.7533 19.4282 11.6775 19.545C11.5968 19.6721 11.4918 19.7821 11.3684 19.8685C11.2451 19.9549 11.106 20.0162 10.9589 20.0487C10.8119 20.0812 10.6599 20.0844 10.5116 20.058C10.3634 20.0316 10.2218 19.9762 10.095 19.895C10.0108 19.8415 9.93387 19.7772 9.86625 19.7038V19.7088C9.68412 19.9934 9.39645 20.1941 9.06644 20.2667C8.73643 20.3394 8.39108 20.2781 8.10625 20.0963C7.9043 19.9696 7.74224 19.7885 7.63875 19.5738C7.195 19.8725 6.60125 19.9 6.12125 19.5925C6.02531 19.5318 5.93715 19.4596 5.85875 19.3775C5.82956 19.4246 5.79564 19.4686 5.7575 19.5088C5.93758 19.6019 6.08432 19.7487 6.1775 19.9288C6.25391 20.0793 6.29014 20.247 6.28269 20.4156C6.27525 20.5842 6.22437 20.7481 6.135 20.8913C6.28333 20.933 6.42136 21.0051 6.54035 21.103C6.65935 21.2009 6.7567 21.3225 6.82625 21.46C6.95065 21.7002 6.98395 21.9772 6.92 22.24C7.19175 22.1741 7.47779 22.2018 7.73184 22.3186C7.9859 22.4355 8.19312 22.6346 8.32 22.8838C8.38953 23.0224 8.43235 23.173 8.44625 23.3275C8.7572 23.1748 9.11439 23.1454 9.44615 23.2451C9.77792 23.3448 10.0597 23.5662 10.235 23.865C10.4195 23.6071 10.6742 23.4075 10.9688 23.29C11.5062 23.075 12.0887 23.16 12.5375 23.4675C12.5926 23.2935 12.6816 23.1321 12.7994 22.9926C12.9172 22.8532 13.0614 22.7384 13.2238 22.655C13.4866 22.5199 13.7858 22.4726 14.0775 22.52C14.0806 22.2887 14.1466 22.0627 14.2684 21.8661C14.3902 21.6694 14.5631 21.5096 14.7687 21.4038C14.899 21.3368 15.0398 21.2929 15.185 21.2738C15.073 21.0079 15.0655 20.7095 15.164 20.4384C15.2625 20.1672 15.4597 19.9433 15.7162 19.8113C15.7691 19.7854 15.8238 19.7637 15.88 19.7463C15.8365 19.6947 15.7987 19.6385 15.7675 19.5788C15.6753 19.3968 15.646 19.1894 15.6842 18.989C15.7225 18.7886 15.826 18.6065 15.9788 18.4713C15.8283 18.3918 15.7061 18.2678 15.6287 18.1163C15.5461 17.9524 15.5195 17.7659 15.5531 17.5854C15.5868 17.405 15.6788 17.2406 15.815 17.1175C15.7351 17.0673 15.6704 16.9965 15.6275 16.9125C15.578 16.8207 15.5571 16.7162 15.5675 16.6125Z" fill="#D9D9D9"/>
</g>
<defs>
<clipPath id="clip0_34_42">
<rect width="30" height="30" fill="white"/>
</clipPath>
</defs>
</svg>
