<svg width="324" height="60" viewBox="0 0 324 60" fill="none" xmlns="http://www.w3.org/2000/svg">
<path d="M19.68 59.8C15.2533 59.8 11.4933 59 8.4 57.4C5.30667 55.8 2.53333 53.4533 0.08 50.36L6.32 44.12C7.86667 46.36 9.70667 48.12 11.84 49.4C13.9733 50.6267 16.6933 51.24 20 51.24C23.0933 51.24 25.5467 50.6 27.36 49.32C29.2267 48.04 30.16 46.28 30.16 44.04C30.16 42.1733 29.68 40.6533 28.72 39.48C27.76 38.3067 26.48 37.3467 24.88 36.6C23.3333 35.8 21.6 35.1067 19.68 34.52C17.8133 33.88 15.92 33.1867 14 32.44C12.1333 31.64 10.4 30.6533 8.8 29.48C7.25333 28.3067 6 26.7867 5.04 24.92C4.08 23.0533 3.6 20.68 3.6 17.8C3.6 14.4933 4.4 11.6933 6 9.4C7.65333 7.05333 9.86667 5.26666 12.64 4.04C15.4133 2.81333 18.5067 2.2 21.92 2.2C25.6 2.2 28.88 2.92 31.76 4.36C34.6933 5.8 37.0667 7.64 38.88 9.88L32.64 16.12C31.04 14.3067 29.36 12.9733 27.6 12.12C25.8933 11.2133 23.92 10.76 21.68 10.76C18.9067 10.76 16.72 11.32 15.12 12.44C13.5733 13.56 12.8 15.1333 12.8 17.16C12.8 18.8667 13.28 20.2533 14.24 21.32C15.2 22.3333 16.4533 23.2133 18 23.96C19.6 24.6533 21.3333 25.32 23.2 25.96C25.12 26.6 27.0133 27.32 28.88 28.12C30.8 28.92 32.5333 29.96 34.08 31.24C35.68 32.4667 36.96 34.0667 37.92 36.04C38.88 38.0133 39.36 40.4933 39.36 43.48C39.36 48.4933 37.5733 52.4667 34 55.4C30.48 58.3333 25.7067 59.8 19.68 59.8ZM64.4644 59.8C60.731 59.8 57.3444 58.92 54.3044 57.16C51.2644 55.3467 48.8377 52.92 47.0244 49.88C45.2644 46.84 44.3844 43.4533 44.3844 39.72C44.3844 35.9867 45.2644 32.6267 47.0244 29.64C48.8377 26.6533 51.2644 24.28 54.3044 22.52C57.3444 20.7067 60.731 19.8 64.4644 19.8C68.251 19.8 71.6644 20.68 74.7044 22.44C77.7444 24.2 80.1444 26.6 81.9044 29.64C83.7177 32.6267 84.6244 35.9867 84.6244 39.72C84.6244 43.4533 83.7177 46.84 81.9044 49.88C80.1444 52.92 77.7444 55.3467 74.7044 57.16C71.6644 58.92 68.251 59.8 64.4644 59.8ZM64.4644 51.32C66.651 51.32 68.571 50.84 70.2244 49.88C71.931 48.8667 73.2377 47.48 74.1444 45.72C75.1044 43.96 75.5844 41.96 75.5844 39.72C75.5844 37.48 75.1044 35.5067 74.1444 33.8C73.1844 32.0933 71.8777 30.76 70.2244 29.8C68.571 28.7867 66.651 28.28 64.4644 28.28C62.331 28.28 60.411 28.7867 58.7044 29.8C57.051 30.76 55.7444 32.0933 54.7844 33.8C53.8777 35.5067 53.4244 37.48 53.4244 39.72C53.4244 41.96 53.8777 43.96 54.7844 45.72C55.7444 47.48 57.051 48.8667 58.7044 49.88C60.411 50.84 62.331 51.32 64.4644 51.32ZM96.1288 59V15.56C96.1288 12.6267 96.7688 10.04 98.0488 7.8C99.3821 5.56 101.195 3.8 103.489 2.52C105.835 1.24 108.529 0.599998 111.569 0.599998C113.915 0.599998 115.915 0.999998 117.569 1.8C119.222 2.6 120.769 3.74666 122.209 5.24L116.529 10.92C115.889 10.28 115.195 9.77333 114.449 9.4C113.702 9.02666 112.742 8.84 111.569 8.84C109.435 8.84 107.782 9.42666 106.609 10.6C105.489 11.72 104.929 13.3467 104.929 15.48V59H96.1288ZM86.9288 28.6V20.6H116.529V28.6H86.9288ZM126.689 59V4.6H135.489V59H126.689ZM117.489 28.6V20.6H144.689V28.6H117.489ZM162.283 59L146.843 20.6H155.963L166.363 48.52L163.643 48.6L173.803 20.6H178.923L189.083 48.6L186.363 48.52L196.763 20.6H205.883L190.443 59H185.323L174.923 32.44H177.803L167.403 59H162.283ZM226.538 59.8C223.071 59.8 219.925 58.92 217.098 57.16C214.325 55.4 212.111 53.0267 210.458 50.04C208.858 47 208.058 43.6133 208.058 39.88C208.058 36.0933 208.858 32.7067 210.458 29.72C212.111 26.68 214.325 24.28 217.098 22.52C219.925 20.7067 223.071 19.8 226.538 19.8C229.471 19.8 232.058 20.44 234.298 21.72C236.591 22.9467 238.405 24.6533 239.738 26.84C241.071 29.0267 241.738 31.5067 241.738 34.28V45.32C241.738 48.0933 241.071 50.5733 239.738 52.76C238.458 54.9467 236.671 56.68 234.378 57.96C232.085 59.1867 229.471 59.8 226.538 59.8ZM227.978 51.48C231.231 51.48 233.845 50.3867 235.818 48.2C237.845 46.0133 238.858 43.2133 238.858 39.8C238.858 37.5067 238.405 35.48 237.498 33.72C236.591 31.96 235.311 30.6 233.658 29.64C232.058 28.6267 230.165 28.12 227.978 28.12C225.845 28.12 223.951 28.6267 222.298 29.64C220.698 30.6 219.418 31.96 218.458 33.72C217.551 35.48 217.098 37.5067 217.098 39.8C217.098 42.0933 217.551 44.12 218.458 45.88C219.418 47.64 220.698 49.0267 222.298 50.04C223.951 51 225.845 51.48 227.978 51.48ZM238.298 59V48.68L239.818 39.32L238.298 30.04V20.6H247.098V59H238.298ZM256.864 59V20.6H265.664V59H256.864ZM265.664 37.64L262.624 36.12C262.624 31.2667 263.691 27.3467 265.824 24.36C268.011 21.32 271.291 19.8 275.664 19.8C277.584 19.8 279.318 20.1467 280.864 20.84C282.411 21.5333 283.851 22.6533 285.184 24.2L279.424 30.12C278.731 29.3733 277.958 28.84 277.104 28.52C276.251 28.2 275.264 28.04 274.144 28.04C271.691 28.04 269.664 28.8133 268.064 30.36C266.464 31.9067 265.664 34.3333 265.664 37.64ZM306.111 59.8C302.271 59.8 298.804 58.9467 295.711 57.24C292.671 55.48 290.244 53.08 288.431 50.04C286.671 47 285.791 43.5867 285.791 39.8C285.791 36.0133 286.671 32.6267 288.431 29.64C290.191 26.6 292.564 24.2 295.551 22.44C298.591 20.68 301.951 19.8 305.631 19.8C309.204 19.8 312.351 20.6267 315.071 22.28C317.844 23.9333 320.004 26.2 321.551 29.08C323.151 31.96 323.951 35.24 323.951 38.92C323.951 39.56 323.897 40.2267 323.791 40.92C323.737 41.56 323.631 42.28 323.471 43.08H291.951V35.88H318.911L315.631 38.76C315.524 36.4133 315.071 34.44 314.271 32.84C313.471 31.24 312.324 30.0133 310.831 29.16C309.391 28.3067 307.604 27.88 305.471 27.88C303.231 27.88 301.284 28.36 299.631 29.32C297.977 30.28 296.697 31.64 295.791 33.4C294.884 35.1067 294.431 37.16 294.431 39.56C294.431 41.96 294.911 44.0667 295.871 45.88C296.831 47.6933 298.191 49.1067 299.951 50.12C301.711 51.08 303.737 51.56 306.031 51.56C308.004 51.56 309.817 51.2133 311.471 50.52C313.177 49.8267 314.617 48.8133 315.791 47.48L321.391 53.16C319.524 55.3467 317.257 57 314.591 58.12C311.924 59.24 309.097 59.8 306.111 59.8Z" fill="white"/>
</svg>
