<svg width="682" height="138" viewBox="0 0 682 138" fill="none" xmlns="http://www.w3.org/2000/svg">
<path opacity="0.5" d="M12.25 108V92.25H39.85C47.05 92.25 53.35 90.7 58.75 87.6C64.25 84.5 68.5 80.2 71.5 74.7C74.6 69.1 76.15 62.65 76.15 55.35C76.15 48.15 74.6 41.8 71.5 36.3C68.4 30.8 64.1 26.5 58.6 23.4C53.2 20.3 46.95 18.75 39.85 18.75H12.25V2.99999H40.3C47.9 2.99999 54.95 4.34999 61.45 7.04999C67.95 9.65 73.6 13.35 78.4 18.15C83.3 22.85 87.1 28.4 89.8 34.8C92.5 41.1 93.85 48 93.85 55.5C93.85 62.9 92.5 69.8 89.8 76.2C87.1 82.6 83.35 88.2 78.55 93C73.75 97.7 68.1 101.4 61.6 104.1C55.1 106.7 48.1 108 40.6 108H12.25ZM0.400001 108V2.99999H17.65V108H0.400001ZM142.635 109.5C135.435 109.5 128.935 107.9 123.135 104.7C117.435 101.4 112.885 96.9 109.485 91.2C106.185 85.5 104.535 79.1 104.535 72C104.535 64.9 106.185 58.55 109.485 52.95C112.785 47.25 117.235 42.75 122.835 39.45C128.535 36.15 134.835 34.5 141.735 34.5C148.435 34.5 154.335 36.05 159.435 39.15C164.635 42.25 168.685 46.5 171.585 51.9C174.585 57.3 176.085 63.45 176.085 70.35C176.085 71.55 175.985 72.8 175.785 74.1C175.685 75.3 175.485 76.65 175.185 78.15H116.085V64.65H166.635L160.485 70.05C160.285 65.65 159.435 61.95 157.935 58.95C156.435 55.95 154.285 53.65 151.485 52.05C148.785 50.45 145.435 49.65 141.435 49.65C137.235 49.65 133.585 50.55 130.485 52.35C127.385 54.15 124.985 56.7 123.285 60C121.585 63.2 120.735 67.05 120.735 71.55C120.735 76.05 121.635 80 123.435 83.4C125.235 86.8 127.785 89.45 131.085 91.35C134.385 93.15 138.185 94.05 142.485 94.05C146.185 94.05 149.585 93.4 152.685 92.1C155.885 90.8 158.585 88.9 160.785 86.4L171.285 97.05C167.785 101.15 163.535 104.25 158.535 106.35C153.535 108.45 148.235 109.5 142.635 109.5ZM212.44 108L179.59 36H197.89L222.94 94.65H212.14L237.34 36H254.89L222.04 108H212.44ZM295.565 109.5C288.365 109.5 281.865 107.9 276.065 104.7C270.365 101.4 265.815 96.9 262.415 91.2C259.115 85.5 257.465 79.1 257.465 72C257.465 64.9 259.115 58.55 262.415 52.95C265.715 47.25 270.165 42.75 275.765 39.45C281.465 36.15 287.765 34.5 294.665 34.5C301.365 34.5 307.265 36.05 312.365 39.15C317.565 42.25 321.615 46.5 324.515 51.9C327.515 57.3 329.015 63.45 329.015 70.35C329.015 71.55 328.915 72.8 328.715 74.1C328.615 75.3 328.415 76.65 328.115 78.15H269.015V64.65H319.565L313.415 70.05C313.215 65.65 312.365 61.95 310.865 58.95C309.365 55.95 307.215 53.65 304.415 52.05C301.715 50.45 298.365 49.65 294.365 49.65C290.165 49.65 286.515 50.55 283.415 52.35C280.315 54.15 277.915 56.7 276.215 60C274.515 63.2 273.665 67.05 273.665 71.55C273.665 76.05 274.565 80 276.365 83.4C278.165 86.8 280.715 89.45 284.015 91.35C287.315 93.15 291.115 94.05 295.415 94.05C299.115 94.05 302.515 93.4 305.615 92.1C308.815 90.8 311.515 88.9 313.715 86.4L324.215 97.05C320.715 101.15 316.465 104.25 311.465 106.35C306.465 108.45 301.165 109.5 295.565 109.5ZM342.242 108V-4.29153e-06H358.742V108H342.242ZM410.105 109.5C403.105 109.5 396.755 107.85 391.055 104.55C385.355 101.15 380.805 96.6 377.405 90.9C374.105 85.2 372.455 78.85 372.455 71.85C372.455 64.85 374.105 58.55 377.405 52.95C380.805 47.35 385.355 42.9 391.055 39.6C396.755 36.2 403.105 34.5 410.105 34.5C417.205 34.5 423.605 36.15 429.305 39.45C435.005 42.75 439.505 47.25 442.805 52.95C446.205 58.55 447.905 64.85 447.905 71.85C447.905 78.85 446.205 85.2 442.805 90.9C439.505 96.6 435.005 101.15 429.305 104.55C423.605 107.85 417.205 109.5 410.105 109.5ZM410.105 93.6C414.205 93.6 417.805 92.7 420.905 90.9C424.105 89 426.555 86.4 428.255 83.1C430.055 79.8 430.955 76.05 430.955 71.85C430.955 67.65 430.055 63.95 428.255 60.75C426.455 57.55 424.005 55.05 420.905 53.25C417.805 51.35 414.205 50.4 410.105 50.4C406.105 50.4 402.505 51.35 399.305 53.25C396.205 55.05 393.755 57.55 391.955 60.75C390.255 63.95 389.405 67.65 389.405 71.85C389.405 76.05 390.255 79.8 391.955 83.1C393.755 86.4 396.205 89 399.305 90.9C402.505 92.7 406.105 93.6 410.105 93.6ZM500.177 109.5C494.677 109.5 489.777 108.35 485.477 106.05C481.177 103.65 477.777 100.4 475.277 96.3C472.877 92.2 471.677 87.55 471.677 82.35V61.65C471.677 56.45 472.927 51.8 475.427 47.7C477.927 43.6 481.327 40.4 485.627 38.1C489.927 35.7 494.777 34.5 500.177 34.5C506.677 34.5 512.527 36.2 517.727 39.6C523.027 42.9 527.177 47.4 530.177 53.1C533.277 58.7 534.827 65.05 534.827 72.15C534.827 79.15 533.277 85.5 530.177 91.2C527.177 96.8 523.027 101.25 517.727 104.55C512.527 107.85 506.677 109.5 500.177 109.5ZM497.477 93.9C501.477 93.9 504.977 93 507.977 91.2C511.077 89.3 513.477 86.7 515.177 83.4C516.977 80.1 517.877 76.3 517.877 72C517.877 67.7 516.977 63.9 515.177 60.6C513.477 57.3 511.077 54.75 507.977 52.95C504.977 51.05 501.477 50.1 497.477 50.1C493.477 50.1 489.927 51.05 486.827 52.95C483.727 54.75 481.327 57.3 479.627 60.6C477.927 63.9 477.077 67.7 477.077 72C477.077 76.3 477.927 80.1 479.627 83.4C481.327 86.7 483.727 89.3 486.827 91.2C489.927 93 493.477 93.9 497.477 93.9ZM461.627 138V36H478.127V55.35L475.277 72.9L478.127 90.3V138H461.627ZM582.088 109.5C574.888 109.5 568.388 107.9 562.588 104.7C556.888 101.4 552.338 96.9 548.938 91.2C545.638 85.5 543.988 79.1 543.988 72C543.988 64.9 545.638 58.55 548.938 52.95C552.238 47.25 556.688 42.75 562.288 39.45C567.988 36.15 574.288 34.5 581.188 34.5C587.888 34.5 593.788 36.05 598.888 39.15C604.088 42.25 608.138 46.5 611.038 51.9C614.038 57.3 615.538 63.45 615.538 70.35C615.538 71.55 615.438 72.8 615.238 74.1C615.138 75.3 614.938 76.65 614.638 78.15H555.538V64.65H606.088L599.938 70.05C599.738 65.65 598.888 61.95 597.388 58.95C595.888 55.95 593.738 53.65 590.938 52.05C588.238 50.45 584.888 49.65 580.888 49.65C576.688 49.65 573.038 50.55 569.938 52.35C566.838 54.15 564.438 56.7 562.738 60C561.038 63.2 560.188 67.05 560.188 71.55C560.188 76.05 561.088 80 562.888 83.4C564.688 86.8 567.238 89.45 570.538 91.35C573.838 93.15 577.638 94.05 581.938 94.05C585.638 94.05 589.038 93.4 592.138 92.1C595.338 90.8 598.038 88.9 600.238 86.4L610.738 97.05C607.238 101.15 602.988 104.25 597.988 106.35C592.988 108.45 587.688 109.5 582.088 109.5ZM628.765 108V36H645.265V108H628.765ZM645.265 67.95L639.565 65.1C639.565 56 641.565 48.65 645.565 43.05C649.665 37.35 655.815 34.5 664.015 34.5C667.615 34.5 670.865 35.15 673.765 36.45C676.665 37.75 679.365 39.85 681.865 42.75L671.065 53.85C669.765 52.45 668.315 51.45 666.715 50.85C665.115 50.25 663.265 49.95 661.165 49.95C656.565 49.95 652.765 51.4 649.765 54.3C646.765 57.2 645.265 61.75 645.265 67.95Z" fill="#FCF8A1"/>
</svg>
