<svg width="30" height="30" viewBox="0 0 30 30" fill="none" xmlns="http://www.w3.org/2000/svg">
<g clip-path="url(#clip0_34_20)">
<path fill-rule="evenodd" clip-rule="evenodd" d="M25.8333 30C28.135 30 30 28.135 30 25.8333V4.16667C30 1.865 28.135 0 25.8333 0H4.16667C1.86583 0 0 1.865 0 4.16667V25.8333C0 28.135 1.86583 30 4.16667 30H25.8333ZM9.16667 10.8622H5V25.099H9.16667V10.8622ZM7.0475 9.18729H7.07083C8.3625 9.18729 9.16667 8.2552 9.16667 7.09281C9.14333 5.90446 8.3625 5 7.095 5C5.82917 5 5 5.90446 5 7.09281C5 8.25604 5.80417 9.18729 7.0475 9.18729ZM20.8333 25.099H25L24.9992 16.9539C24.9992 12.7465 22.7633 10.8622 19.7817 10.8622C17.375 10.8622 16.4342 12.1184 15.8333 13.053V10.8622H11.6667V25.099H15.8333V17.5619C15.8333 17.492 15.8323 17.4104 15.8312 17.3218C15.8256 16.8908 15.818 16.2917 15.9175 16.0486C16.2458 15.2296 16.9225 14.3821 18.1733 14.3821C19.8125 14.3821 20.8333 15.6382 20.8333 17.479V25.099Z" fill="#D9D9D9"/>
</g>
<defs>
<clipPath id="clip0_34_20">
<rect width="30" height="30" fill="white"/>
</clipPath>
</defs>
</svg>
