<svg width="259" height="74" viewBox="0 0 259 74" fill="none" xmlns="http://www.w3.org/2000/svg">
<path d="M28.92 58.8C24.92 58.8 21.1867 58.0533 17.72 56.56C14.2533 55.0667 11.2133 53.0133 8.6 50.4C5.98667 47.7333 3.93333 44.6667 2.44 41.2C1 37.68 0.28 33.92 0.28 29.92C0.28 25.92 1 22.1867 2.44 18.72C3.93333 15.2533 5.96 12.2133 8.52 9.6C11.1333 6.93333 14.1467 4.88 17.56 3.44C21.0267 1.94666 24.76 1.2 28.76 1.2C32.76 1.2 36.4667 1.94666 39.88 3.44C43.3467 4.88 46.3867 6.93333 49 9.6C51.6133 12.2133 53.64 15.28 55.08 18.8C56.5733 22.2667 57.32 26 57.32 30C57.32 34 56.5733 37.76 55.08 41.28C53.64 44.7467 51.6133 47.7867 49 50.4C46.44 53.0133 43.4267 55.0667 39.96 56.56C36.5467 58.0533 32.8667 58.8 28.92 58.8ZM28.76 50C32.5467 50 35.8533 49.1467 38.68 47.44C41.56 45.7333 43.8 43.3867 45.4 40.4C47.0533 37.36 47.88 33.8667 47.88 29.92C47.88 26.9867 47.4 24.32 46.44 21.92C45.5333 19.4667 44.2267 17.36 42.52 15.6C40.8133 13.7867 38.7867 12.4 36.44 11.44C34.1467 10.48 31.5867 10 28.76 10C25.0267 10 21.72 10.8533 18.84 12.56C16.0133 14.2133 13.7733 16.5333 12.12 19.52C10.52 22.5067 9.72 25.9733 9.72 29.92C9.72 32.8533 10.1733 35.5733 11.08 38.08C12.04 40.5333 13.3467 42.64 15 44.4C16.7067 46.16 18.7333 47.5467 21.08 48.56C23.4267 49.52 25.9867 50 28.76 50ZM54.52 61.84L29.32 36.64L35.24 30.72L60.44 55.92L54.52 61.84ZM83.265 58.8C80.0117 58.8 77.105 58.08 74.545 56.64C72.0383 55.2 70.065 53.2267 68.625 50.72C67.2383 48.16 66.545 45.2267 66.545 41.92V19.6H75.345V41.52C75.345 43.3867 75.6383 44.9867 76.225 46.32C76.865 47.6 77.7717 48.5867 78.945 49.28C80.1717 49.9733 81.6117 50.32 83.265 50.32C85.825 50.32 87.7717 49.5733 89.105 48.08C90.4917 46.5333 91.185 44.3467 91.185 41.52V19.6H99.985V41.92C99.985 45.28 99.265 48.24 97.825 50.8C96.4383 53.3067 94.4917 55.28 91.985 56.72C89.4783 58.1067 86.5717 58.8 83.265 58.8ZM124.913 58.8C121.446 58.8 118.3 57.92 115.473 56.16C112.7 54.4 110.486 52.0267 108.833 49.04C107.233 46 106.433 42.6133 106.433 38.88C106.433 35.0933 107.233 31.7067 108.833 28.72C110.486 25.68 112.7 23.28 115.473 21.52C118.3 19.7067 121.446 18.8 124.913 18.8C127.846 18.8 130.433 19.44 132.673 20.72C134.966 21.9467 136.78 23.6533 138.113 25.84C139.446 28.0267 140.113 30.5067 140.113 33.28V44.32C140.113 47.0933 139.446 49.5733 138.113 51.76C136.833 53.9467 135.046 55.68 132.753 56.96C130.46 58.1867 127.846 58.8 124.913 58.8ZM126.353 50.48C129.606 50.48 132.22 49.3867 134.193 47.2C136.22 45.0133 137.233 42.2133 137.233 38.8C137.233 36.5067 136.78 34.48 135.873 32.72C134.966 30.96 133.686 29.6 132.033 28.64C130.433 27.6267 128.54 27.12 126.353 27.12C124.22 27.12 122.326 27.6267 120.673 28.64C119.073 29.6 117.793 30.96 116.833 32.72C115.926 34.48 115.473 36.5067 115.473 38.8C115.473 41.0933 115.926 43.12 116.833 44.88C117.793 46.64 119.073 48.0267 120.673 49.04C122.326 50 124.22 50.48 126.353 50.48ZM136.673 58V47.68L138.193 38.32L136.673 29.04V19.6H145.473V58H136.673ZM155.239 58V0.399998H164.039V58H155.239ZM173.913 58V19.6H182.713V58H173.913ZM178.313 12.56C176.82 12.56 175.566 12.0533 174.553 11.04C173.593 10.0267 173.113 8.77333 173.113 7.28C173.113 5.78666 173.593 4.53333 174.553 3.52C175.566 2.50666 176.82 2 178.313 2C179.86 2 181.113 2.50666 182.073 3.52C183.033 4.53333 183.513 5.78666 183.513 7.28C183.513 8.77333 183.033 10.0267 182.073 11.04C181.113 12.0533 179.86 12.56 178.313 12.56ZM198.423 58V3.6H207.223V58H198.423ZM189.223 27.6V19.6H216.423V27.6H189.223ZM235.218 58.4L218.818 19.6H228.497L239.698 48.08H236.898L248.738 19.6H258.498L240.658 58.4H235.218ZM223.778 74L235.698 49.44L240.658 58.4L233.538 74H223.778Z" fill="white"/>
</svg>
